<?xml version="1.0" encoding="utf-8"?>
<!-- Generator: Adobe Illustrator 19.0.0, SVG Export Plug-In . SVG Version: 6.00 Build 0)  -->
<svg version="1.0" id="Layer_1" xmlns="http://www.w3.org/2000/svg" xmlns:xlink="http://www.w3.org/1999/xlink" x="0px" y="0px"
	 width="1400px" height="980px" viewBox="0 0 1400 980" enable-background="new 0 0 1400 980" xml:space="preserve">
<g id="XMLID_103_">
	<rect fill="#FFFFFF" width="1400" height="980"/>
</g>
<g id="XMLID_87_">
	<g id="XMLID_77_">
		<circle fill="#F5B51A" cx="896.6" cy="214.8" r="54.6"/>
	</g>
	<g id="XMLID_80_">
		<circle fill="#F5B51A" cx="1035.6" cy="214.8" r="54.6"/>
	</g>
	<g id="XMLID_73_">
		<polygon id="XMLID_138_" fill="#F5B51A" points="927.1,688.1 700.7,267.5 714.8,259.9 927.2,654.5 1118.1,302.3 1275.1,302.3 
			1275.1,318.3 1127.7,318.3 		"/>
	</g>
	<g id="XMLID_60_">
		<g id="XMLID_65_">
			<path fill="#F5B51A" d="M995.3,422.3l0.7-95.4c-24.5,1.5-48.7,10.8-68.3,27.8L995.3,422.3z"/>
		</g>
		<g id="XMLID_61_">
			<path fill="#D85248" d="M1011.1,444.8l-83.4,83.4c45,39.2,113.9,37.4,156.7-5.5l0,0c44.7-44.7,44.7-117.9,0-162.6l0,0
				c-20.1-20.1-46-31.2-72.4-33.2L1011.1,444.8z"/>
		</g>
		<g id="XMLID_64_">
			<path fill="#86CBCD" d="M991.9,441.5L916.4,366c-37.4,43-37.4,107.9,0,150.9L991.9,441.5z"/>
		</g>
	</g>
	<g id="XMLID_59_">
		<g id="XMLID_63_">
			<path fill="#F5B51A" d="M407.9,625.7c19.8,0,37.7,7.8,51,20.4l56.9-45.4c-26.9-29.2-65.4-47.6-108-47.6h0
				c-77.4,0-141.3,60.6-146.6,136.7h73.3C339.4,653.6,370.4,625.7,407.9,625.7z"/>
		</g>
		<g id="XMLID_70_">
			<path fill="#D85248" d="M334.5,710.2h-73.4c5,72.7,63.6,131.3,136.4,136.4v-73.4C364.9,768.6,339.1,742.8,334.5,710.2z"/>
		</g>
		<g id="XMLID_71_">
			<path fill="#86CBCD" d="M418,773.3v73.3c76.1-5.3,136.7-69.2,136.7-146.6v0c0-30.9-9.7-59.6-26.1-83.4L471.7,662
				c6.6,11.1,10.4,24,10.4,37.8C482,737.4,454.1,768.4,418,773.3z"/>
		</g>
	</g>
	<g id="XMLID_24_">
		<path fill="#C4C4C3" d="M810.5,293.4L810.5,293.4c-16.6,0-30,13.4-30,30v182.5h60V323.4C840.5,306.8,827,293.4,810.5,293.4z"/>
	</g>
	<g id="XMLID_28_">
		<path fill="#E5E7EA" d="M543.4,293.4L543.4,293.4c-16.6,0-30,13.4-30,30v24.7v340.2h267.1V348.1v-24.7c0-16.6,13.4-30,30-30H543.4
			z"/>
	</g>
	<g id="XMLID_27_">
		<rect id="XMLID_137_" x="545.9" y="358.3" fill="#595A5C" width="202" height="7"/>
	</g>
	<g id="XMLID_30_">
		<rect id="XMLID_136_" x="545.9" y="383.3" fill="#595A5C" width="202" height="7"/>
	</g>
	<g id="XMLID_32_">
		<rect id="XMLID_135_" x="545.9" y="408.3" fill="#595A5C" width="202" height="7"/>
	</g>
	<g id="XMLID_33_">
		<rect id="XMLID_134_" x="545.9" y="433.3" fill="#595A5C" width="202" height="7"/>
	</g>
	<g id="XMLID_34_">
		<rect id="XMLID_133_" x="714.6" y="458.3" fill="#595A5C" width="33.3" height="7"/>
	</g>
	<g id="XMLID_23_">
		<rect id="XMLID_132_" x="545.9" y="458.3" fill="#595A5C" width="137.3" height="7"/>
	</g>
	<g id="XMLID_35_">
		<rect id="XMLID_131_" x="545.9" y="483.3" fill="#595A5C" width="202" height="7"/>
	</g>
	<g id="XMLID_36_">
		<rect id="XMLID_130_" x="545.9" y="508.3" fill="#595A5C" width="202" height="7"/>
	</g>
	<g id="XMLID_37_">
		<rect id="XMLID_129_" x="587.9" y="533.3" fill="#595A5C" width="160" height="7"/>
	</g>
	<g id="XMLID_56_">
		<rect id="XMLID_128_" x="587.9" y="558.3" fill="#595A5C" width="160" height="7"/>
	</g>
	<g id="XMLID_57_">
		<rect id="XMLID_127_" x="545.9" y="583.3" fill="#595A5C" width="202" height="7"/>
	</g>
	<g id="XMLID_58_">
		<rect id="XMLID_126_" x="545.9" y="608.3" fill="#595A5C" width="101" height="7"/>
	</g>
	<g id="XMLID_90_">
		<g id="XMLID_102_">
			<rect id="XMLID_125_" x="1312.5" y="559.8" fill="#595A5C" width="19.2" height="7"/>
		</g>
		<g id="XMLID_101_">
			<rect id="XMLID_124_" x="1215.5" y="559.8" fill="#595A5C" width="79" height="7"/>
		</g>
		<g id="XMLID_100_">
			<rect id="XMLID_123_" x="1215.5" y="584.8" fill="#595A5C" width="116.2" height="7"/>
		</g>
		<g id="XMLID_99_">
			<rect id="XMLID_122_" x="1215.5" y="609.8" fill="#595A5C" width="116.2" height="7"/>
		</g>
		<g id="XMLID_97_">
			<rect id="XMLID_121_" x="1239.6" y="634.8" fill="#595A5C" width="92" height="7"/>
		</g>
		<g id="XMLID_94_">
			<rect id="XMLID_120_" x="1239.6" y="659.8" fill="#595A5C" width="92" height="7"/>
		</g>
		<g id="XMLID_93_">
			<rect id="XMLID_119_" x="1215.5" y="684.8" fill="#595A5C" width="116.2" height="7"/>
		</g>
		<g id="XMLID_91_">
			<rect id="XMLID_118_" x="1215.5" y="709.8" fill="#595A5C" width="58.1" height="7"/>
		</g>
	</g>
	<g id="XMLID_104_">
		<g id="XMLID_109_">
			<rect id="XMLID_117_" x="68.3" y="609.8" fill="#595A5C" width="116.2" height="7"/>
		</g>
		<g id="XMLID_108_">
			<rect id="XMLID_116_" x="68.3" y="634.8" fill="#595A5C" width="92" height="7"/>
		</g>
		<g id="XMLID_107_">
			<rect id="XMLID_115_" x="68.3" y="659.8" fill="#595A5C" width="92" height="7"/>
		</g>
		<g id="XMLID_106_">
			<rect id="XMLID_114_" x="68.3" y="684.8" fill="#595A5C" width="116.2" height="7"/>
		</g>
		<g id="XMLID_105_">
			<rect id="XMLID_113_" x="126.4" y="709.8" fill="#595A5C" width="58.1" height="7"/>
		</g>
	</g>
	<g id="XMLID_68_">
		<rect x="282.3" y="223.2" fill="#86CBCD" width="30.6" height="166.1"/>
	</g>
	<g id="XMLID_67_">
		<rect x="333.6" y="305.3" fill="#F5B51A" width="30.6" height="84"/>
	</g>
	<g id="XMLID_66_">
		<rect x="384.8" y="197.4" fill="#EC5A48" width="30.6" height="191.9"/>
	</g>
	<g id="XMLID_62_">
		<rect x="436" y="234.2" fill="#F5B51A" width="30.6" height="155.2"/>
	</g>
	<g id="XMLID_72_">
		<polygon id="XMLID_112_" fill="#F5B51A" points="489.8,431.4 223.1,431.4 223.1,415.4 480.2,415.4 638,116.3 714.8,259.9 
			700.7,267.4 638.1,150.5 		"/>
	</g>
	<g id="XMLID_74_">
		<path id="XMLID_25_" fill="#D85248" d="M1018.6,657.2v-17.3c0-11.9,6.9-18.3,17.8-18.3c10.7,0,17.6,6.4,17.6,18.3v17.3
			c0,11.9-6.9,18.1-17.6,18.1C1025.5,675.3,1018.6,669,1018.6,657.2z M1099.8,623.6h14.8l-79.4,115.2h-14.8L1099.8,623.6z
			 M1040.8,657.5v-17.9c0-4.8-1.3-6.3-4.4-6.3s-4.6,1.5-4.6,6.3v17.9c0,4.6,1.5,6.1,4.6,6.1S1040.8,662.1,1040.8,657.5z M1078,722.2
			v-17.3c0-11.9,6.9-18.3,17.8-18.3c10.7,0,17.6,6.4,17.6,18.3v17.3c0,11.9-6.9,18.1-17.6,18.1C1085,740.3,1078,734,1078,722.2z
			 M1100.3,722.5v-17.9c0-4.8-1.3-6.3-4.4-6.3s-4.6,1.5-4.6,6.3v17.9c0,4.6,1.5,6.1,4.6,6.1S1100.3,727.1,1100.3,722.5z"/>
	</g>
	<g id="XMLID_78_">
		<g id="XMLID_75_">
			<path fill="#FFFFFF" d="M901.4,243.5v6.2h-9.6v-6.1c-7.9-1.6-12.7-7.5-12.7-17.1h11.7c0,4.5,2.2,6.4,5.8,6.4c3.8,0,5.6-2.2,5.6-5
				c0-9.3-22-10.4-22-27.5c0-7.1,4.2-12.7,11.5-14.3V180h9.6v6.2c7.5,1.7,11.8,7.4,11.8,16h-11.7c0-3.7-1.7-5.5-5-5.5
				c-3,0-4.7,1.6-4.7,4.2c0,8.8,22.3,9.4,22.3,27.2C914.1,235.8,909.5,241.7,901.4,243.5z"/>
		</g>
	</g>
	<g id="XMLID_81_">
		<g id="XMLID_84_">
			<path fill="#FFFFFF" d="M1040.5,243.5v6.2h-9.6v-6.1c-7.9-1.6-12.7-7.5-12.7-17.1h11.7c0,4.5,2.2,6.4,5.8,6.4
				c3.8,0,5.6-2.2,5.6-5c0-9.3-22-10.4-22-27.5c0-7.1,4.2-12.7,11.5-14.3V180h9.6v6.2c7.5,1.7,11.8,7.4,11.8,16h-11.7
				c0-3.7-1.7-5.5-5-5.5c-3,0-4.7,1.6-4.7,4.2c0,8.8,22.3,9.4,22.3,27.2C1053.1,235.8,1048.6,241.7,1040.5,243.5z"/>
		</g>
	</g>
	<g id="XMLID_79_">
		<rect x="669.8" y="747" fill="#D85248" width="51" height="51"/>
	</g>
	<g id="XMLID_82_">
		<rect x="754.9" y="747" fill="#86CBCD" width="51" height="51"/>
	</g>
	<g id="XMLID_83_">
		<rect x="840" y="747" fill="#F5B51A" width="51" height="51"/>
	</g>
	<g id="XMLID_69_">
		<g id="XMLID_98_">
			<circle fill="#86CBCD" cx="136.1" cy="496.8" r="67.7"/>
		</g>
		<g id="XMLID_96_">
			<path fill="#F5B51A" d="M223,492v9.6c0,9.1,7.4,16.4,16.4,16.4h83.7c9.1,0,16.4-7.4,16.4-16.4V492c0-9.1-7.4-16.4-16.4-16.4
				h-83.7C230.4,475.5,223,482.9,223,492z"/>
		</g>
		<g id="XMLID_95_">
			<path fill="#D85248" d="M223,501.6V492c0-1.1,0.1-2.2,0.3-3.2h-20.1c0.3,2.6,0.5,5.3,0.5,8c0,2.7-0.2,5.4-0.5,8h20.1
				C223.1,503.8,223,502.7,223,501.6z"/>
		</g>
		<g id="XMLID_92_">
			<circle fill="#FFFFFF" cx="136.1" cy="496.8" r="49.5"/>
		</g>
	</g>
	<g id="XMLID_86_">
		<rect x="1219.2" y="366" fill="#D85248" width="112.5" height="33.6"/>
	</g>
	<g id="XMLID_88_">
		<rect x="1219.2" y="424.8" fill="#86CBCD" width="112.5" height="33.6"/>
	</g>
	<g id="XMLID_89_">
		<rect x="1219.2" y="483.7" fill="#F5B51A" width="112.5" height="33.6"/>
	</g>
</g>
</svg>
