<svg width="1920" height="923" viewBox="0 0 1920 923" fill="none" xmlns="http://www.w3.org/2000/svg">
<g opacity="0.2">
<path d="M-112.046 691.244L-49.9625 726.741C-16.485 737.398 11.9862 771.101 75.4544 759.632C138.923 748.164 223.587 706.325 284.454 670.401C345.322 634.478 395.021 614.047 456.454 583.45C517.888 552.853 616.127 533.563 683.454 558.374C750.781 583.185 843.129 663.067 907.454 659.654C971.779 656.242 1047.54 571.946 1113.45 583.45C1179.37 594.954 1238.82 697.13 1308.18 741.018C1377.54 784.907 1442.84 776.847 1504.45 747.908C1566.06 718.97 1647.03 682.285 1710.45 670.401C1773.88 658.517 1816.45 654.213 1849.26 658.628C1849.26 658.628 1890.9 663.876 1915.95 670.401C1940.45 676.781 1975.45 691.243 1975.45 691.243" stroke="#FFCD00" stroke-width="3"/>
<path d="M-90.5456 810.761C-56.0652 821.872 57.2122 901.827 121.454 888.919C185.697 876.012 300.232 824.146 360.954 785.034C421.677 745.921 462.465 704.132 523.954 670.727C585.443 637.322 654.49 598.841 723.954 624.809C793.418 650.777 860.556 697.594 925.957 693.318C991.359 689.043 1044.29 591.934 1111.84 603.643C1179.39 615.352 1261.55 735.88 1333.76 782.291C1405.97 828.701 1468.23 800.994 1529.96 769.366C1591.68 737.738 1652.88 702.189 1717.07 688.836C1781.25 675.483 1848.41 684.326 1882 688.748L1915.58 693.169" stroke="#FFCD00" stroke-width="3"/>
<path d="M-137.046 537.532L-79.0456 611.131C-46.8131 623.635 37.8612 687.005 102.954 678.868C168.048 670.732 245.893 643.992 311.454 611.131C377.016 578.27 396.495 565.008 461.954 537.532C527.414 510.056 606.056 460.14 670.454 488.683C734.852 517.226 831.015 641.084 895.954 641.092C960.893 641.1 1039.8 545.238 1104.45 560.328C1169.11 575.418 1232.32 676.433 1296.35 724.264C1360.39 772.095 1421.18 763.315 1486.61 737.516C1552.03 711.717 1650.1 665.513 1715.2 656.957C1780.3 648.4 1850.6 650.764 1882.95 656.957C1915.31 663.15 1928.45 666.168 1928.45 666.168L1969.33 686.624" stroke="#0FB582" stroke-width="3"/>
<path d="M-104.787 741.494L-82.0456 760.935C-47.3089 770.581 37.6518 824.08 104.954 814.343C172.257 804.607 236.771 758.132 302.454 726.74C368.138 695.349 426.418 647.25 492.454 620.575C558.49 593.9 617.249 560.409 686.954 582.799C756.659 605.188 842.39 671.249 910.226 668.646C978.062 666.043 1040.16 586.725 1108.98 597.331C1177.81 607.938 1255.49 721.652 1326.45 760.935C1397.42 800.217 1455.31 776.347 1521.45 751.14C1587.6 725.934 1659.88 686.208 1727.15 676.103C1794.43 665.999 1863.07 674.237 1897.4 678.356L1931.72 682.475" stroke="#0FB582" stroke-width="3"/>
</g>
<rect x="1698" y="458.894" width="51" height="51" transform="rotate(-38.71 1698 458.894)" fill="#0FB582"/>
<rect x="1711.44" y="460.376" width="31.875" height="31.875" transform="rotate(-38.71 1711.44 460.376)" fill="#FFCD00"/>
<rect x="1722.2" y="461.561" width="15.9375" height="15.9375" transform="rotate(-38.71 1722.2 461.561)" fill="white"/>
<rect x="685.643" y="727" width="25" height="25" transform="rotate(27.758 685.643 727)" fill="#FA6400"/>
<rect x="687.608" y="733.331" width="15.625" height="15.625" transform="rotate(27.758 687.608 733.331)" fill="#FFCD00"/>
<rect x="689.18" y="738.396" width="7.8125" height="7.8125" transform="rotate(27.758 689.18 738.396)" fill="white"/>
<rect x="162" y="522.596" width="40" height="40" transform="rotate(-59.87 162 522.596)" fill="#FFCD00"/>
<rect x="172.251" y="519.874" width="25" height="25" transform="rotate(-59.87 172.251 519.874)" fill="#0FB582"/>
<rect x="180.452" y="517.696" width="12.5" height="12.5" transform="rotate(-59.87 180.452 517.696)" fill="white"/>
<circle cx="456" cy="828" r="12" fill="#0FB582"/>
<circle cx="1220" cy="746" r="7" fill="#FA6400"/>
<circle cx="1467" cy="852" r="12" fill="#32C5FF"/>
<circle cx="1265" cy="205" r="6" fill="#0FB582"/>
<circle cx="510" cy="159" r="15" fill="#FFCD00"/>
<circle cx="190" cy="246" r="10" fill="#FA6400"/>
<circle cx="1377" cy="499" r="15" fill="#FF8F00"/>
<circle cx="1642" cy="629" r="10" fill="#32C5FF"/>
<rect x="450.99" y="366" width="20" height="20" transform="rotate(33.3314 450.99 366)" fill="#32C5FF"/>
<rect x="1563.65" y="194" width="18" height="18" transform="rotate(60.4257 1563.65 194)" fill="#FFCD00"/>
</svg>
